<?xml version="1.0" standalone="no"?>
<!DOCTYPE svg PUBLIC "-//W3C//DTD SVG 20010904//EN"
 "http://www.w3.org/TR/2001/REC-SVG-20010904/DTD/svg10.dtd">
<svg version="1.0" xmlns="http://www.w3.org/2000/svg"
 width="300.000000pt" height="293.000000pt" viewBox="0 0 300.000000 293.000000"
 preserveAspectRatio="xMidYMid meet">
<metadata>
Created by potrace 1.10, written by Peter Selinger 2001-2011
</metadata>
<g transform="translate(0.000000,293.000000) scale(0.100000,-0.100000)"
fill="#000000" stroke="none">
<path d="M978 2610 l-188 -5 -36 -36 c-24 -24 -39 -50 -43 -75 -4 -22 -6 -295
-6 -609 2 -567 2 -570 24 -613 17 -33 33 -49 66 -63 42 -19 70 -19 749 -17
694 3 705 3 732 24 15 11 37 33 48 48 21 27 21 37 21 635 l0 608 -29 41 c-16
24 -41 45 -60 51 -34 12 -961 19 -1278 11z m1295 -51 c15 -11 31 -37 37 -57 8
-25 10 -224 8 -624 l-3 -588 -33 -32 -32 -33 -710 -3 c-623 -2 -714 -1 -740
13 -61 32 -60 16 -60 670 0 420 3 603 11 618 6 12 21 30 33 39 19 16 74 18
742 18 713 0 722 0 747 -21z"/>
<path d="M816 2514 c-14 -14 -16 -83 -16 -608 0 -562 1 -594 18 -609 17 -16
81 -17 710 -17 679 0 692 0 712 20 20 20 20 33 20 605 0 572 0 585 -20 605
-20 20 -33 20 -714 20 -618 0 -696 -2 -710 -16z m1404 -33 c14 -27 14 -1125 0
-1151 -10 -19 -31 -20 -689 -20 -574 0 -681 3 -691 15 -17 21 -15 1155 2 1167
7 4 318 8 690 8 659 0 678 -1 688 -19z"/>
<path d="M1803 2430 c-74 -30 -45 -160 35 -160 87 0 119 115 43 155 -34 17
-46 18 -78 5z m79 -37 c41 -37 3 -111 -50 -98 -50 12 -68 61 -35 97 20 22 61
23 85 1z"/>
<path d="M2024 2428 c-12 -5 -27 -21 -33 -34 -27 -60 1 -112 66 -121 35 -5 45
-2 67 20 36 36 35 80 -3 118 -30 30 -60 35 -97 17z m71 -24 c27 -11 38 -53 21
-80 -35 -52 -106 -33 -106 29 0 18 5 38 12 45 13 13 47 16 73 6z"/>
<path d="M1030 2420 c-126 -10 -141 -41 -140 -280 2 -190 10 -220 70 -255 33
-19 52 -20 336 -20 338 0 336 0 374 75 18 35 20 59 20 205 0 146 -2 170 -20
205 -36 70 -37 70 -321 73 -140 1 -283 0 -319 -3z m589 -44 c35 -32 43 -80 39
-258 l-3 -168 -28 -27 -27 -28 -238 -3 c-298 -4 -374 2 -410 33 l-27 23 0 195
c0 192 0 196 24 221 28 30 38 31 397 31 234 0 253 -1 273 -19z"/>
<path d="M984 2335 c-22 -22 -24 -32 -24 -120 l0 -96 42 3 c39 3 42 5 54 49 8
25 22 53 33 63 34 31 57 7 86 -89 15 -47 30 -85 35 -85 5 0 14 19 20 43 33
128 58 177 91 177 32 0 55 -33 83 -118 33 -98 50 -116 77 -83 11 13 19 29 19
37 0 9 18 14 58 16 l57 3 3 86 c2 73 0 90 -17 110 l-19 24 -287 2 -287 2 -24
-24z m311 -15 l40 -2 -32 -14 c-35 -15 -95 -106 -86 -130 3 -8 1 -14 -3 -14
-5 0 -20 23 -32 51 -41 89 -103 85 -144 -9 -19 -42 -22 -44 -34 -27 -30 41
-11 141 28 147 20 3 130 2 263 -2z m281 -3 c2 -2 5 -35 6 -73 l3 -69 -39 -6
c-26 -4 -48 -16 -63 -34 -13 -15 -26 -26 -27 -24 -6 6 -36 99 -36 110 0 5 -4
15 -10 22 -61 75 -61 75 -43 80 20 4 204 -1 209 -6z"/>
<path d="M1297 2198 c-9 -24 -24 -70 -34 -102 -34 -112 -73 -102 -117 28 -16
50 -32 84 -37 79 -5 -5 -17 -34 -27 -64 l-17 -54 -52 -3 -53 -3 0 -47 c0 -27
7 -57 16 -70 15 -22 16 -22 314 -22 298 0 299 0 314 22 10 14 16 44 16 80 l0
58 -45 0 c-39 0 -47 -3 -55 -24 -5 -14 -21 -33 -35 -42 -37 -24 -69 -7 -89 48
-8 24 -25 69 -37 101 -11 31 -26 57 -34 57 -7 0 -20 -19 -28 -42z m59 -96 c21
-65 56 -102 98 -102 32 0 74 22 89 47 11 17 37 17 37 -1 0 -8 3 -21 6 -29 3
-9 -4 -25 -15 -36 -19 -19 -33 -20 -271 -21 -137 0 -261 2 -274 6 -50 12 -38
84 14 84 20 0 35 8 46 25 23 35 39 31 50 -12 5 -20 21 -45 36 -56 23 -17 31
-18 56 -8 16 7 35 23 42 37 8 13 17 24 22 24 5 0 7 4 4 9 -3 5 1 32 10 61 18
60 23 57 50 -28z"/>
<path d="M1809 2210 c-47 -11 -51 -62 -7 -79 13 -5 87 -8 166 -7 132 2 144 4
164 24 22 22 22 22 2 42 -17 18 -35 20 -161 22 -78 2 -152 1 -164 -2z m316
-40 c0 -13 -26 -15 -167 -18 -136 -2 -168 0 -168 11 0 8 3 17 7 21 4 3 79 5
167 4 135 -3 161 -5 161 -18z"/>
<path d="M1797 2069 c-31 -18 -48 -63 -36 -97 22 -64 97 -82 143 -35 23 23 26
33 21 63 -11 63 -77 99 -128 69z m66 -20 c29 -16 37 -28 37 -61 0 -52 -57 -69
-102 -30 -24 20 -23 43 3 76 23 29 31 31 62 15z"/>
<path d="M2009 2051 c-56 -57 -23 -141 56 -141 79 0 114 94 54 144 -40 34 -74
33 -110 -3z m107 -26 c31 -47 -17 -106 -70 -85 -64 24 -48 110 20 110 25 0 38
-7 50 -25z"/>
<path d="M943 1813 c-24 -5 -45 -26 -51 -52 -8 -38 -2 -361 8 -385 5 -15 20
-30 32 -35 31 -12 108 -8 135 7 15 8 22 9 25 1 2 -7 31 -11 78 -10 79 1 100 1
193 1 33 -1 65 4 73 11 11 9 17 9 28 0 18 -15 139 -22 147 -9 4 7 19 6 42 -1
22 -7 55 -9 84 -5 54 7 64 8 148 6 227 -6 241 -5 264 24 20 25 21 38 21 213 0
167 -2 189 -19 211 -16 20 -27 24 -67 23 -74 -3 -83 -17 -85 -146 -1 -102 -11
-136 -30 -106 -5 8 -9 59 -9 114 0 102 -2 110 -32 133 -13 10 -25 11 -57 2
-49 -13 -50 -16 -53 -160 -2 -62 -7 -105 -13 -105 -6 0 -11 43 -13 105 -1 58
-4 114 -7 126 -9 42 -77 51 -117 16 -15 -13 -18 -33 -18 -128 0 -105 -8 -139
-28 -119 -4 4 -8 52 -9 108 -1 56 -5 112 -8 124 -7 31 -37 37 -145 32 -14 -1
-46 0 -71 2 -28 2 -57 -2 -73 -10 -28 -15 -29 -22 -27 -166 1 -33 -3 -67 -9
-75 -19 -29 -30 11 -30 116 0 89 -2 103 -21 119 -24 23 -85 22 -111 -2 -15
-14 -18 -34 -18 -129 0 -70 -4 -115 -11 -120 -24 -14 -33 19 -34 126 -1 81 -6
115 -16 124 -16 15 -63 24 -96 19z m77 -154 c0 -122 1 -131 20 -136 18 -5 20
-14 20 -82 l0 -76 -67 5 -68 5 -3 195 c-1 107 0 200 2 207 3 8 23 13 51 13
l45 0 0 -131z m200 -4 c0 -113 2 -135 15 -135 12 0 15 -15 15 -77 l0 -78 -72
2 -73 1 -3 76 c-2 63 0 76 13 76 13 0 15 20 15 135 l0 135 45 0 45 0 0 -135z
m210 -77 l0 -213 -67 1 -68 2 -3 73 c-2 57 0 74 13 81 12 7 15 32 15 138 l0
130 55 0 55 0 0 -212z m150 77 c0 -113 2 -135 15 -135 12 0 15 -15 15 -77 l0
-78 -66 1 -66 2 1 208 c0 115 1 210 1 212 0 1 23 2 50 2 l50 0 0 -135z m180 0
c0 -115 2 -135 15 -135 13 0 15 -13 13 -76 l-3 -76 -68 -1 -67 -2 0 78 c0 62
3 77 15 77 13 0 15 22 15 135 l0 135 40 0 40 0 0 -135z m170 0 c0 -113 2 -135
15 -135 12 0 15 -15 15 -77 l0 -78 -65 0 -65 0 0 78 c0 45 4 77 10 77 6 0 10
52 10 135 l0 135 40 0 40 0 0 -135z m198 123 c14 -14 17 -375 3 -397 -6 -9
-30 -14 -70 -15 l-61 -1 0 78 c0 62 3 77 15 77 13 0 15 22 15 135 l0 135 43 0
c24 0 48 -5 55 -12z"/>
<path d="M438 1092 c-50 -6 -58 -32 -58 -179 0 -168 3 -173 116 -173 41 0 83
4 93 10 12 6 29 5 49 -2 39 -15 77 7 85 50 5 26 12 31 57 42 27 7 53 16 56 21
13 22 24 6 24 -36 0 -109 111 -113 124 -5 2 17 7 34 10 38 11 11 26 -20 26
-55 0 -48 38 -71 87 -54 25 10 38 10 46 2 14 -14 180 -14 194 0 8 8 21 7 48
-2 37 -14 38 -13 65 19 21 25 29 30 33 18 11 -29 43 -37 68 -17 23 19 24 19
53 -6 21 -17 36 -22 50 -18 12 4 30 7 41 6 132 -10 197 -11 213 -2 14 7 29 7
51 -2 31 -11 34 -10 60 19 l28 31 28 -28 c26 -26 32 -28 101 -25 65 2 77 6
102 29 36 35 53 34 98 -5 33 -29 38 -31 66 -20 20 7 37 8 49 2 29 -16 151 -12
177 6 43 30 18 104 -35 104 -49 0 -53 7 -53 99 0 96 -14 131 -54 131 -49 0
-61 -21 -66 -122 l-5 -93 -29 86 c-37 111 -52 131 -100 131 -43 0 -60 -12 -76
-55 -7 -18 -15 -41 -20 -52 -15 -41 -32 -91 -41 -123 -6 -18 -14 -30 -20 -27
-12 8 -12 45 1 45 5 0 15 18 21 40 24 79 -23 155 -103 171 -50 10 -140 1 -150
-15 -5 -7 -16 -6 -35 5 -33 19 -164 19 -187 0 -11 -9 -20 -10 -35 -2 -39 22
-78 13 -105 -22 -15 -19 -26 -38 -26 -42 0 -5 -7 -17 -16 -27 -16 -17 -18 -16
-36 20 -41 77 -46 82 -87 82 -22 0 -41 -5 -44 -12 -3 -10 -10 -10 -28 1 -35
21 -145 24 -186 4 -26 -12 -37 -13 -46 -4 -17 17 -62 13 -80 -6 -8 -10 -17
-34 -19 -53 -3 -22 -10 -35 -19 -35 -9 0 -15 13 -17 35 -7 66 -64 92 -110 50
l-22 -21 -28 21 c-35 26 -169 34 -196 11 -13 -11 -19 -11 -32 0 -15 12 -98 18
-156 11z m152 -60 l0 -34 -57 4 c-57 3 -58 2 -61 -24 -3 -28 -2 -28 52 -28 56
0 56 0 56 -30 0 -30 -1 -30 -55 -30 -54 0 -55 0 -55 -30 0 -30 0 -30 60 -30
60 0 60 0 60 -30 l0 -30 -90 0 -90 0 0 148 0 147 90 0 90 0 0 -33z m227 6 c12
-11 25 -33 28 -49 17 -78 -34 -135 -112 -125 l-43 6 0 -50 c0 -49 -1 -50 -30
-50 l-30 0 0 143 c0 79 2 146 4 148 3 2 40 3 83 1 61 -3 83 -8 100 -24z m133
-28 l0 -60 50 0 50 0 0 61 c0 60 0 60 28 57 l27 -3 3 -147 3 -148 -31 0 -30 0
0 60 0 60 -50 0 -50 0 0 -60 c0 -60 0 -60 -30 -60 l-30 0 0 150 0 150 30 0
c30 0 30 0 30 -60z m390 22 l0 -34 -60 4 c-60 3 -60 3 -60 -24 0 -27 2 -28 56
-28 54 0 55 0 52 -27 -3 -26 -7 -28 -55 -31 -51 -3 -53 -4 -53 -33 0 -29 0
-29 60 -29 60 0 60 0 60 -30 l0 -30 -90 0 -90 0 0 148 0 147 90 0 90 0 0 -33z
m114 16 c8 -13 27 -53 43 -90 15 -37 31 -68 34 -68 4 0 21 35 39 78 40 93 41
94 79 97 l31 3 0 -149 0 -149 -32 0 -31 0 6 95 c4 52 5 95 3 95 -2 0 -21 -40
-42 -90 -21 -49 -43 -90 -50 -90 -6 0 -29 39 -52 88 l-40 87 -1 -92 c-1 -92
-1 -93 -26 -93 l-25 0 0 150 0 150 25 0 c15 0 30 -9 39 -22z m454 -18 l3 -32
-58 3 c-56 3 -58 2 -61 -24 -3 -26 -2 -27 52 -27 56 0 56 0 56 -30 0 -30 -1
-30 -55 -30 -54 0 -55 0 -55 -30 0 -30 0 -30 60 -30 60 0 60 0 60 -30 l0 -30
-90 0 -90 0 0 143 c0 79 2 146 4 148 2 2 42 3 88 2 l83 -2 3 -31z m242 5 c17
-18 23 -37 24 -71 1 -39 -3 -50 -28 -71 l-29 -24 32 -45 c17 -25 31 -47 31
-49 0 -3 -15 -5 -32 -5 -28 0 -38 7 -66 50 -43 66 -62 66 -62 0 0 -49 -1 -50
-30 -50 l-30 0 0 148 0 147 84 -3 c73 -3 87 -6 106 -27z m269 -117 l50 -149
-32 3 c-24 2 -33 9 -37 28 -5 23 -10 25 -65 25 -55 0 -60 -2 -65 -25 -4 -19
-13 -26 -37 -28 l-32 -3 50 148 49 148 35 1 34 0 50 -148z m141 32 l0 -120 55
0 c54 0 55 0 55 -30 l0 -30 -85 0 -85 0 0 143 c0 79 3 147 7 150 3 4 17 7 30
7 23 0 23 -1 23 -120z"/>
<path d="M690 965 l0 -45 38 0 c43 0 62 14 62 45 0 31 -19 45 -62 45 l-38 0 0
-45z"/>
<path d="M2019 1005 c0 -3 -1 -22 -2 -42 0 -38 0 -38 41 -41 36 -3 43 0 53 21
18 40 -3 67 -51 67 -22 0 -40 -2 -41 -5z"/>
<path d="M2316 943 c-21 -62 -21 -63 19 -63 19 0 35 3 35 6 0 9 -32 104 -35
104 -2 0 -10 -21 -19 -47z"/>
<path d="M1262 697 c-11 -12 -25 -40 -33 -62 l-13 -40 -9 31 c-5 17 -19 44
-31 59 -19 23 -27 26 -54 20 -26 -5 -36 -16 -56 -58 l-24 -52 -11 43 c-14 49
-49 77 -86 68 -52 -13 -48 -48 27 -296 26 -85 104 -94 141 -17 18 38 37 42 37
8 0 -23 27 -48 62 -56 31 -8 77 20 78 47 0 9 4 19 9 22 8 5 12 22 27 96 2 8
10 48 19 89 16 71 16 74 -2 92 -28 29 -58 31 -81 6z m-263 -54 c6 -21 18 -72
29 -113 12 -50 21 -68 24 -55 3 11 16 62 29 113 22 88 24 92 50 92 26 0 28 -4
56 -105 15 -58 31 -105 36 -105 4 0 7 6 7 13 0 6 9 54 21 105 l21 92 35 0 c30
0 34 -3 28 -17 -4 -10 -24 -80 -44 -155 l-36 -138 -32 0 c-29 0 -33 4 -43 43
-34 127 -44 157 -50 150 -4 -4 -18 -50 -30 -100 -23 -92 -24 -93 -54 -93 l-31
0 -39 138 c-21 75 -41 145 -44 155 -3 13 2 17 26 17 28 0 32 -4 41 -37z"/>
<path d="M1960 713 c-8 -3 -25 -9 -38 -16 -17 -8 -25 -8 -34 1 -34 34 -99 -3
-115 -66 -3 -14 -12 -37 -19 -51 -12 -23 -14 -23 -19 -5 -4 10 -11 28 -15 39
-5 11 -11 30 -15 42 -7 27 -50 55 -77 51 -12 -2 -30 -15 -41 -30 -17 -22 -18
-30 -8 -42 7 -9 11 -21 9 -28 -3 -7 -14 8 -25 34 -23 51 -46 68 -91 68 -26 0
-72 -34 -72 -54 0 -4 -6 -22 -14 -39 -8 -18 -16 -41 -19 -52 -3 -11 -17 -51
-31 -90 -14 -38 -26 -76 -26 -83 0 -19 24 -40 54 -48 21 -5 32 0 55 25 39 42
83 42 118 1 30 -36 62 -38 91 -7 19 20 20 28 12 58 -5 18 -14 43 -19 54 -18
40 -34 105 -28 111 4 4 9 1 11 -7 2 -8 12 -39 22 -69 42 -132 75 -175 131
-168 35 4 61 42 92 136 35 105 42 99 46 -42 2 -82 21 -95 136 -96 71 0 89 3
102 18 23 25 21 58 -4 94 -17 23 -19 32 -9 38 18 11 15 61 -4 72 -14 8 -13 12
9 34 30 30 33 73 7 95 -18 16 -139 31 -172 22z m-395 -175 c27 -79 50 -149 53
-156 3 -10 -4 -13 -29 -10 -26 2 -34 8 -39 28 -5 23 -11 25 -72 28 l-66 3 -7
-31 c-5 -25 -11 -30 -36 -30 -16 0 -29 3 -29 7 0 4 23 74 51 155 l52 148 37 0
37 0 48 -142z m135 35 c19 -60 37 -111 40 -115 3 -4 23 44 44 107 l37 115 36
0 c19 0 33 -4 31 -8 -1 -5 -27 -74 -57 -155 l-54 -147 -33 0 c-29 0 -34 4 -47
43 -8 23 -34 93 -56 155 l-41 112 33 0 33 0 34 -107z m420 74 l0 -33 -65 4
-65 4 0 -35 0 -36 58 2 c55 2 57 1 60 -25 4 -31 3 -31 -70 -28 l-48 1 0 -36 0
-37 65 4 65 4 0 -33 0 -33 -95 0 -95 0 0 155 0 155 95 0 95 0 0 -33z"/>
<path d="M1457 552 c-10 -28 -17 -53 -17 -56 0 -3 18 -6 40 -6 l39 0 -14 40
c-26 75 -30 77 -48 22z"/>
</g>
</svg>
